**ABCDEFGHIJKLMNOPQRSTUVWXYZabcdefghijklmnopqrstuvwxyz**************************
**PARASOLID !"#$%&'()*+,-./:;<=>?@[\]^_`{|}~0123456789**************************
**PART1;
MC=LEOQ01;
MC_MODEL=unknown;
MC_ID=unknown;
OS=Windows NT;
OS_RELEASE=6.2;
FRU=Unigraphics Solutions;
APPL=SolidEdge;
SITE=Huntsville, AL;
USER=LeoFB
FORMAT=text;
GUISE=transmit;
KEY=K:\mai-university7\Theoretical mechanics\New_file;
FILE=K:\mai-university7\Theoretical mechanics\New_file.x_t;
DATE=Sun, Apr 27 25;
**PART2;
SCH=SCH_3700118_36001;
USFLD_SIZE=0;
**PART3;
**END_OF_HEADER*****************************************************************
T51 : TRANSMIT FILE created by modeller version 370011823 SCH_3700118_36001_1300
6231 0 12 36 CCCI7 lattice222 0 CCCI4 mesh1006 0 I8 polyline1008 0 CCCCCCCDI5 ow
ner1040 0 CCCI16 boundary_lattice222 0 CCCI13 boundary_mesh1006 0 I17 boundary_p
olyline1008 0 CCCA16 index_map_offset0 0 1 dA9 index_map82 0 A17 node_id_index_m
ap82 0 A20 schema_embedding_map82 0 A5 child12 0 A14 lowest_node_id0 0 1 dA16 me
sh_offset_data206 0 Z1 106 2 3 0 0 0 0 0 0 0 1e3 1e-8 0 4 0 1 0 1 1 5 0 6 7 0 0
 0 8 9 0 0 0 0 0 0 0 0 81 255 3 2 91 10 1 11 0 0 0 12 13 14 70 11 CI9 list_type0
 0 1 uI10 notransmit0 0 1 lCCCDCCDI12 finger_index0 0 1 dI12 finger_block1012 0
 CZ3 0 4 T1 0 0 9 20 1 15 15 13 255 5 3 0 1 0 16 0 0 17 0 51 255 6 28 0 16 18 0
 0 +0 0 .15 0 0 -1 .3 -1 0 0 31 255 7 23 0 19 20 0 0 +0 0 -.15 0 0 -1 1 0 0 .3 1
9 9 CCCCCCI5 frame230 0 CA5 owner12 0 Z8 1 0 1 17 0 21 0 V0 16 255 9 5 0 ?22 0 1
9 20 0 0 1 17 255 22 0 23 22 22 0 24 9 0 0 +16 19 19 25 ?26 9 27 7 0 0 1 31 20 6
 0 9 28 7 0 +0 0 .15 0 0 -1 1 0 0 .3 31 28 88 0 29 30 20 0 +0 0 .15 0 0 -1 0 1 0
 .285 16 29 62 31 ?32 27 0 28 0 0 1 31 30 89 0 27 0 28 0 +0 0 -.15 0 0 -1 0 1 0
 .285 16 27 65 0 ?33 19 29 30 0 0 1 17 33 0 34 33 33 0 35 27 0 0 +15 255 34 71 0
 33 36 37 17 35 0 38 35 35 0 33 27 0 0 -15 38 48 0 35 39 40 14 255 39 17 41 ?36
 42 38 5 18 +0 0 36 42 21 15 40 18 0 26 39 0 17 26 0 40 26 26 0 43 19 0 0 +17 43
 0 44 43 43 0 26 19 0 0 -15 44 26 0 43 16 0 14 16 25 45 ?42 0 23 5 6 +0 0 42 0 2
1 81 2 45 97 46 16 47 0 0 48 49 50 14 42 8 48 ?39 16 51 5 52 -0 0 39 16 21 15 23
 24 0 22 16 44 13 21 29 0 0 0 0 0 0 8 16 81 2 48 100 46 42 53 0 45 41 54 55 15 5
1 56 0 32 42 56 50 255 52 11 0 42 57 18 0 +0 0 .15 0 0 -1 -1 0 0 51 57 85 0 36 0
 52 0 -0 0 -.15 0 0 1 .285 1 0 0 50 18 22 0 39 52 6 0 +0 0 -.15 0 0 -1 -1 0 0 14
 36 66 58 ?0 39 34 5 57 +0 0 0 39 21 81 2 58 106 46 36 59 0 41 0 60 61 80 7 CCCC
CDI12 legal_owners0 17 1 lCZ2 46 62 63 8014 0 0 0 0 3 5 0 0 0 FFFFTFFFFFFFFFFFF2
 1 81 1 59 105 64 36 65 58 66 0 67 81 2 41 103 46 39 66 0 48 58 68 69 83 255 1 6
0 0 82 255 1 61 0 81 1 66 102 64 39 70 41 53 59 71 83 1 68 0 82 1 69 0 80 1 64 4
6 72 8015 0 0 0 0 3 5 0 0 0 FFFFTFFFFFFFFFFFF2 81 1 70 101 73 39 74 66 75 65 76
 81 1 53 99 64 42 75 48 47 66 77 83 1 71 0 81 1 75 98 73 42 78 53 79 70 80 81 1
 47 96 64 16 79 45 0 53 81 83 1 77 0 81 1 79 95 73 16 82 47 0 75 83 83 1 81 0 80
 1 73 0 84 8001 0 0 0 0 3 5 0 0 0 FFFFTFTFFFFFFFFFF2 81 1 82 43 85 16 86 79 0 78
 0 83 3 83 .505882382392883 .529411792755127 .549019634723663 80 1 85 87 88 9000
 1 1 1 1 1 1 1 1 0 FFFFTFTTFFFFFFFFF1 81 1 86 41 89 16 90 82 91 92 93 81 1 78 92
 85 42 94 75 82 74 0 81 1 94 34 89 42 95 78 0 91 96 81 1 74 93 85 39 91 70 78 97
 0 81 1 91 37 89 39 98 74 94 86 99 81 1 97 94 85 36 92 65 74 0 0 81 1 92 67 89 3
6 100 97 86 0 101 81 1 65 104 73 36 97 59 70 0 102 83 3 102 .505882382392883 .52
9411792755127 .549019634723663 80 1 89 103 104 9000 0 0 0 0 3 6 0 0 0 FFFFTFFFFF
FFFFFFF1 81 3 100 70 105 36 0 92 90 0 106 107 0 82 1 101 1164 80 3 105 108 109 9
000 0 0 0 0 3 6 0 0 0 FFFFTFTTFFFFFFFFF1 1 3 81 3 90 38 105 16 0 86 98 100 110 1
11 0 82 1 106 0 82 1 107 5 81 3 98 35 105 39 0 91 95 90 112 113 0 82 1 110 0 82
 1 111 2 81 3 95 31 105 42 0 94 0 98 114 115 0 82 1 112 0 82 1 113 1 82 1 114 0
 82 1 115 0 79 255 27 109 MONIKER/MONIKER_DATA_ATTRIB79 23 104 SolidEdge/MNKR_AT
TR_CID82 1 99 1096 82 1 96 1096 82 1 93 1096 79 17 88 SolidEdge/Display79 15 84
 SDL/TYSA_COLOUR83 3 80 .505882382392883 .529411792755127 .549019634723663 83 3
 76 .505882382392883 .529411792755127 .549019634723663 79 21 72 SDL/TYSA_TRANSLU
CENCY83 1 67 0 79 21 63 SDL/TYSA_REFLECTIVITY17 32 0 51 32 32 0 116 29 0 0 +15 5
6 7 0 24 42 0 17 24 0 56 24 24 0 22 9 0 0 -17 116 0 37 116 116 0 32 29 0 0 -15 3
7 72 0 116 36 0 83 1 54 0 82 1 55 0 83 1 49 0 82 1 50 0 81 1 31 64 87 29 0 0 25
 0 117 80 1 87 118 119 9000 0 0 0 0 3 6 0 0 0 FFFFTFTTFFFFFFFFF1 81 1 25 21 87 1
9 0 0 0 31 120 82 1 117 17 82 1 120 17 79 27 119 SolidEdge/MNKR_ATTR_TYPE_EX19 1
7 30 0 1 0 8 5 0 S0 74 4 CI16 index_map_offset0 0 1 dCCZ20 15 9 0 0 31 100 92 97
 11 2 65 59 58 0 0 0 0 0 0 0 0 0 0 0 81 2 11 46 121 1 0 2 0 0 122 123 80 2 121 1
0 124 9000 2 2 2 2 3 6 0 0 0 FFTFFFFFFFFFFFFFF2 3 83 2 122 1 11 84 255 19 123 SE
 225.0.1.4 Type8679 22 124 MONIKER/BODY_ID_ATTRIB80 3 10 125 126 9000 0 0 0 0 3
 6 0 0 0 FFTFFFFFFFFFFFFFF3 3 1 84 38 12 {78bfd557-51f6-4fec-8d83-6413e214b0a7}8
4 2 13 SE82 1 14 0 79 25 126 MONIKER/GUID_TABLE_ATTRIB1 0 
