**ABCDEFGHIJKLMNOPQRSTUVWXYZabcdefghijklmnopqrstuvwxyz**************************
**PARASOLID !"#$%&'()*+,-./:;<=>?@[\]^_`{|}~0123456789**************************
**PART1;
;
;
FRU=C3D Kernel;
APPL=C3D-based application;
FORMAT=text;
GUISE=transmit;
KEY=wheel;
FILE=wheel.x_t;
DATE=Sat Apr 26 23:58:12 2025;
**PART2;
SCH=SCH_3000119_30000;
USFLD_SIZE=0;
**PART3;
**END_OF_HEADER*****************************************************************
T51 : TRANSMIT FILE created by modeller version 300011923 SCH_3000119_30000_1300
6194 0 74 4 CI16 index_map_offset0 0 1 dCCZ2 1 2 0 0 2 3 12 33 CCCCCCI4 mesh1006
 0 I8 polyline1008 0 CCCCCCCDI5 owner1040 0 CCCCCCI13 boundary_mesh1006 0 I17 bo
undary_polyline1008 0 CCCA16 index_map_offset0 0 1 dA9 index_map82 0 A17 node_id
_index_map82 0 A20 schema_embedding_map82 0 A5 child12 0 A14 lowest_node_id0 0 1
 dZ2 44 0 13 0 0 0 0 0 0 1000 1E-8 0 0 0 1 0 1 1 4 22 64 84 0 0 7 62 61 0 0 0 0
 0 0 12 3 14 0 0 0 0 0 0 0 0 1000 1E-8 0 0 0 1 0 2 1 5 0 28 45 0 0 10 0 24 0 0 0
 0 0 0 13 255 4 1 0 2 0 9 0 0 8 0 13 5 1 0 3 0 0 11 0 10 0 13 6 2 0 0 0 0 0 0 7
 9 19 8 CCCCCCCA5 owner12 0 Z7 3 0 2 8 0 6 V0 19 8 4 0 2 0 7 4 S0 14 255 9 5 12
 ?20 0 21 4 22 -0 0 20 0 6 19 10 2 0 3 0 0 5 V0 16 255 11 3 0 ?26 0 23 28 0 0 5
 81 255 1 12 6 15 9 17 0 31 0 16 70 11 CI9 list_type0 0 1 uI10 notransmit0 0 1 l
CCCDCCDI12 finger_index0 0 1 dI12 finger_block1012 0 CZ13 0 4 T2 0 0 2 20 1 14 1
4 74 20 14 2 0 0 12 17 0 0 0 0 0 0 0 0 0 0 0 0 0 0 0 0 0 0 80 255 1 15 0 29 8001
 0 0 0 0 3 5 0 0 0 FFFFTFTFFFFFFF2 83 255 3 16 .564705882352941 .564705882352941
 .564705882352941 81 1 17 7 18 9 0 12 33 0 19 80 1 18 0 30 8015 0 0 0 0 3 5 0 0
 0 FFFFTFFFFFFFFF2 83 1 19 0 14 20 8 31 ?35 9 36 4 37 +0 0 35 9 6 15 255 21 11 0
 38 9 39 50 255 22 12 0 9 37 0 0 +0 0 0 0 1 6.12323399573677E-17 -1 7.4987989133
0929E-33 -1.22464679914735E-16 16 23 4 0 ?42 0 0 44 0 0 5 18 255 24 5 0 26 0 25
 45 ?3 18 25 6 0 27 24 40 46 ?3 17 255 26 0 0 0 0 24 27 11 0 0 +17 27 0 0 0 0 25
 26 11 0 0 -134 255 28 7 0 11 44 0 0 +47 48 79 255 15 29 SDL/TYSA_COLOUR79 21 30
 SDL/TYSA_TRANSLUCENCY81 1 31 9 15 20 33 0 52 12 32 83 3 32 .564705882352941 .56
4705882352941 .564705882352941 81 1 33 10 18 20 0 31 54 17 34 83 1 34 0 14 35 13
 52 ?56 20 57 4 58 -0 0 56 20 6 15 36 16 0 59 20 60 50 37 17 0 20 63 22 0 +0 .01
 6.12323399573677E-19 0 1 6.12323399573677E-17 -1 7.49879891330929E-33 -1.224646
79914735E-16 17 38 0 21 38 38 61 96 62 0 96 -15 39 21 0 65 9 0 18 40 8 0 42 25 4
1 66 ?3 18 41 9 0 43 40 0 67 ?3 17 42 0 0 0 0 40 43 23 0 0 +17 43 0 0 0 0 41 42
 23 0 0 -134 44 10 0 23 0 28 0 +68 69 29 255 45 11 0 24 46 0 -.02 1.499759782661
86E-34 -2.44929359829471E-18 29 46 12 0 25 66 45 -.02 1.49975978266186E-34 -2.44
929359829471E-18 136 255 47 3 55 3 57 1 TTF1 49 50 51 135 255 48 2 0 45 255 165
 49 -.02 5.02920442803102E-20 -.000821331412703246 -.02 -5.02920442803081E-20 .0
00821331412703211 -.0198986841548029 -1.50875909462667E-19 .00246399059006585 -.
0194450666188222 -2.99464761351593E-19 .0048906306954804 -.0186966816941096 -4.4
3513984724045E-19 .00724313304101781 -.0176648741332622 -5.80840001040748E-19 .0
094858370829067 -.0163652850871358 -7.09361071571701E-19 .0115847454476766 -.014
8176150009414 -8.27128952263752E-19 .013508040895377 -.0130453249755778 -9.32358
400920925E-19 .0152265682084021 -.0110752811212565 -1.02345424668025E-18 .016714
2762695794 -.0089373472946569 -1.09903556929395E-18 .0179486129398148 -.00666393
239330049 -1.15795663297708E-18 .018910866933769 -.00428949906970029 -1.19932425
445901E-18 .0195864514616627 -.00185004131267803 -1.22251134276751E-18 .01996512
53507324 .000617461184816167 -1.227166405279E-18 .0200411482908118 .003075603600
15382 -1.21321887599105E-18 .0198133678516245 .00548712300001082 -1.180880185230
29E-18 .0192852369524415 .00781546320845287 -1.13064055458442E-18 .0184647615193
477 .0100253289612993 -1.06326156564257E-18 .0173643791235621 .01208322094635 -9
.7976461519474E-19 .0160007704405367 .0139579436188114 -8.81415431897614E-19 .01
439460638792 .0156210780939558 -7.69704889118339E-19 .0125702347755163 .01704741
29484461 -6.46326404813991E-19 .0105553112173075 .0182153263998138 -5.1315027104
1523E-19 .00838037990053619 .0191071140706417 -3.72195302236649E-19 .00607841056
696161 .0197092573688783 -2.25598232044868E-19 .00368429872518246 .0200126284159
134 -7.55813226174627E-20 .00123433667029686 .0200126284159134 7.55813226174659E
-20 -.00123433667029691 .0197092573688783 2.25598232044872E-19 -.003684298725182
51 .0191071140706417 3.72195302236652E-19 -.00607841056696166 .0182153263998138
 5.13150271041526E-19 -.00838037990053624 .017047412948446 6.46326404813994E-19
 -.0105553112173076 .0156210780939557 7.69704889118341E-19 -.0125702347755163 .0
139579436188113 8.81415431897616E-19 -.01439460638792 .01208322094635 9.79764615
194742E-19 -.0160007704405367 .0100253289612993 1.06326156564257E-18 -.017364379
1235621 .00781546320845284 1.13064055458442E-18 -.0184647615193477 .005487123000
01081 1.18088018523029E-18 -.0192852369524415 .00307560360015381 1.2132188759910
5E-18 -.0198133678516245 .000617461184816168 1.227166405279E-18 -.02004114829081
18 -.00185004131267802 1.22251134276751E-18 -.0199651253507324 -.004289499069700
28 1.19932425445901E-18 -.0195864514616627 -.00666393239330047 1.15795663297708E
-18 -.018910866933769 -.00893734729465687 1.09903556929395E-18 -.017948612939814
8 -.0110752811212565 1.02345424668025E-18 -.0167142762695794 -.0130453249755778
 9.32358400920927E-19 -.0152265682084021 -.0148176150009414 8.27128952263755E-19
 -.0135080408953771 -.0163652850871357 7.09361071571704E-19 -.0115847454476766 -
.0176648741332622 5.80840001040752E-19 -.00948583708290676 -.0186966816941096 4.
43513984724049E-19 -.00724313304101788 -.0194450666188221 2.99464761351598E-19 -
.00489063069548048 -.0198986841548029 1.50875909462671E-19 -.00246399059006591 -
.02 5.02920442803102E-20 -.000821331412703246 -.02 -5.02920442803081E-20 .000821
331412703211 -.0198986841548029 -1.50875909462667E-19 .00246399059006585 127 255
 57 50 1 1 2 1 1 1 1 1 1 1 1 1 1 1 1 1 1 1 1 1 1 1 1 1 1 1 1 1 1 1 1 1 1 1 1 1 1
 1 1 1 1 1 1 1 1 1 1 1 1 1 1 1 1 2 1 1 1 128 255 57 51 -.246399423810968 -.12319
9711905486 0 .123199711905482 .246399423810964 .369599135716446 .492798847621928
 .61599855952741 .739198271432893 .862397983338375 .985597695243857 1.1087974071
4934 1.23199711905482 1.3551968309603 1.47839654286579 1.60159625477127 1.724795
96667675 1.84799567858223 1.97119539048771 2.0943951023932 2.21759481429868 2.34
079452620416 2.46399423810964 2.58719395001512 2.71039366192061 2.83359337382609
 2.95679308573157 3.07999279763705 3.20319250954254 3.32639222144802 3.449591933
3535 3.57279164525898 3.69599135716446 3.81919106906995 3.94239078097543 4.06559
049288091 4.18879020478639 4.31198991669187 4.43518962859736 4.55838934050284 4.
68158905240832 4.8047887643138 4.92798847621928 5.05118818812476 5.1743879000302
5 5.29758761193573 5.42078732384121 5.54398703574669 5.66718674765217 5.79038645
955765 5.91358617146314 6.03678588336862 6.1599855952741 6.28318530717959 6.4063
8501908507 6.52958473099055 6.65278444289603 81 1 52 14 15 35 54 0 73 31 53 83 3
 53 .564705882352941 .564705882352941 .564705882352941 81 1 54 15 18 35 0 52 75
 33 55 83 1 55 0 14 56 22 73 ?0 35 77 4 63 +0 0 0 35 6 15 57 25 0 78 35 79 51 25
5 58 26 0 35 0 63 0 +0 0 0 0 1 6.12323399573677E-17 .019 -1 7.49879891330929E-33
 -1.22464679914735E-16 17 59 0 36 59 59 80 88 81 0 88 +15 60 29 0 83 20 0 18 61
 30 0 38 0 80 84 ?2 16 62 18 0 ?96 0 81 64 0 0 2 51 63 19 0 56 58 37 0 +0 0 0 0
 1 6.12323399573677E-17 .02 -1 7.49879891330929E-33 -1.22464679914735E-16 31 255
 64 20 0 62 82 0 0 +0 0 0 0 1 6.12323399573677E-17 -1 7.49879891330929E-33 -1.22
464679914735E-16 .02 17 65 0 39 65 65 85 93 86 0 93 +29 66 13 0 40 67 46 -.019 1
.42477179352876E-34 -2.32682891837997E-18 29 67 14 0 41 0 66 -.019 1.42477179352
876E-34 -2.32682891837997E-18 136 68 3 55 3 57 1 TTF1 70 71 72 135 69 2 0 45 165
 70 -.019 4.77774420662947E-20 -.000780264842068083 -.019 -4.77774420662927E-20
 .000780264842068051 -.0189037499470627 -1.43332113989534E-19 .00234079106056256
 -.0184728132878811 -2.84491523284013E-19 .00464609916070638 -.0177618476094041
 -4.21338285487843E-19 .00688097638896692 -.0167816304265991 -5.5179800098871E-1
9 .00901154522876136 -.015547020832779 -6.73893017993116E-19 .0110055081752928 -
.0140767342508943 -7.85772504650564E-19 .0128326388506082 -.0123930587267989 -8.
85740480874878E-19 .014465239797982 -.0105215170651937 -9.72281534346234E-19 .01
58785624561004 -.00849047992992405 -1.04408379082925E-18 .0170511822928241 -.006
33073577363547 -1.10005880132823E-18 .0179653235870805 -.00407502411621528 -1.13
935804173606E-18 .0186071288885795 -.00175753924704412 -1.16138577562913E-18 .01
89668690831958 .000586588125575359 -1.16580808501505E-18 .0190390908762712 .0029
2182342014613 -1.1525579321915E-18 .0188226994590432 .00521276685001028 -1.12183
617596877E-18 .0183209751048195 .00742469004803022 -1.0741085268552E-18 .0175415
234433803 .00952406251323433 -1.01009848736044E-18 .016496160167384 .01147905989
90325 -9.30776384435003E-19 .0152007319185098 .0132600464378708 -8.3734466030273
3E-19 .013674876068524 .014840024189258 -7.31219644662422E-19 .0119417230367405
 .0161950423010237 -6.14010084573291E-19 .0100275456564422 .0173045600798231 -4.
87492757489447E-19 .00796136090550938 .0181517583671096 -3.53585537124817E-19 .0
0577449003861353 .0187237945004344 -2.14318320442625E-19 .00350008378892333 .019
0119969951177 -7.18022564865896E-20 .00117261983678202 .0190119969951177 7.18022
564865926E-20 -.00117261983678207 .0187237945004344 2.14318320442628E-19 -.00350
008378892338 .0181517583671096 3.5358553712482E-19 -.00577449003861358 .01730456
00798231 4.8749275748945E-19 -.00796136090550942 .0161950423010237 6.14010084573
294E-19 -.0100275456564422 .014840024189258 7.31219644662424E-19 -.0119417230367
405 .0132600464378708 8.37344660302735E-19 -.013674876068524 .0114790598990325 9
.30776384435005E-19 -.0152007319185099 .00952406251323429 1.01009848736044E-18 -
.016496160167384 .0074246900480302 1.0741085268552E-18 -.0175415234433803 .00521
276685001027 1.12183617596877E-18 -.0183209751048195 .00292182342014612 1.152557
9321915E-18 -.0188226994590432 .000586588125575359 1.16580808501505E-18 -.019039
0908762712 -.00175753924704412 1.16138577562913E-18 -.0189668690831958 -.0040750
2411621526 1.13935804173606E-18 -.0186071288885795 -.00633073577363545 1.1000588
0132823E-18 -.0179653235870805 -.00849047992992403 1.04408379082925E-18 -.017051
1822928241 -.0105215170651936 9.72281534346235E-19 -.0158785624561004 -.01239305
87267989 8.85740480874881E-19 -.014465239797982 -.0140767342508943 7.85772504650
567E-19 -.0128326388506082 -.0155470208327789 6.73893017993119E-19 -.01100550817
52928 -.0167816304265991 5.51798000988714E-19 -.00901154522876142 -.017761847609
4041 4.21338285487847E-19 -.00688097638896699 -.018472813287881 2.84491523284018
E-19 -.00464609916070646 -.0189037499470627 1.43332113989537E-19 -.0023407910605
6261 -.019 4.77774420662947E-20 -.000780264842068083 -.019 -4.77774420662927E-20
 .000780264842068051 -.0189037499470627 -1.43332113989534E-19 .00234079106056256
 127 57 71 1 1 2 1 1 1 1 1 1 1 1 1 1 1 1 1 1 1 1 1 1 1 1 1 1 1 1 1 1 1 1 1 1 1 1
 1 1 1 1 1 1 1 1 1 1 1 1 1 1 1 1 1 1 2 1 1 1 128 57 72 -.246399423810968 -.12319
9711905486 0 .123199711905482 .246399423810964 .369599135716446 .492798847621928
 .61599855952741 .739198271432893 .862397983338375 .985597695243857 1.1087974071
4934 1.23199711905482 1.3551968309603 1.47839654286579 1.60159625477127 1.724795
96667675 1.84799567858223 1.97119539048771 2.0943951023932 2.21759481429868 2.34
079452620416 2.46399423810964 2.58719395001512 2.71039366192061 2.83359337382609
 2.95679308573157 3.07999279763705 3.20319250954254 3.32639222144802 3.449591933
3535 3.57279164525898 3.69599135716446 3.81919106906995 3.94239078097543 4.06559
049288091 4.18879020478639 4.31198991669187 4.43518962859736 4.55838934050284 4.
68158905240832 4.8047887643138 4.92798847621928 5.05118818812476 5.1743879000302
5 5.29758761193573 5.42078732384121 5.54398703574669 5.66718674765217 5.79038645
955765 5.91358617146314 6.03678588336862 6.1599855952741 6.28318530717959 6.4063
8501908507 6.52958473099055 6.65278444289603 81 1 73 23 15 56 75 0 0 52 74 83 3
 74 .564705882352941 .564705882352941 .564705882352941 81 1 75 24 18 56 0 73 0 5
4 76 83 1 76 0 15 77 33 0 88 56 89 17 78 0 57 78 78 90 83 91 0 83 +15 79 36 0 93
 35 0 18 80 37 0 59 61 85 94 ?2 16 81 27 0 ?59 62 86 82 0 0 2 31 82 28 0 81 87 6
4 0 +0 .01 6.12323399573677E-19 0 1 6.12323399573677E-17 -1 7.49879891330929E-33
 -1.22464679914735E-16 .02 17 83 0 60 83 83 90 78 91 0 0 -29 84 38 0 61 94 0 -.0
2 2.99951956532372E-34 -4.89858719658941E-18 18 85 39 0 65 80 90 95 ?2 16 86 31
 0 ?65 81 91 87 0 0 2 31 87 32 0 86 92 82 0 +0 0 0 0 1 6.12323399573677E-17 -1 7
.49879891330929E-33 -1.22464679914735E-16 .019 17 88 0 77 88 88 80 59 81 0 0 -15
 89 40 0 96 56 0 18 90 41 0 78 85 0 97 ?2 16 91 34 0 ?78 86 0 92 0 0 2 31 92 35
 0 91 0 87 0 +0 .01 6.12323399573677E-19 0 1 6.12323399573677E-17 -1 7.498798913
30929E-33 -1.22464679914735E-16 .019 17 93 0 79 93 93 85 65 86 0 0 -29 94 42 0 8
0 95 84 -.02 .01 -4.28626379701574E-18 29 95 43 0 85 97 94 -.019 2.8495435870575
3E-34 -4.65365783675994E-18 17 96 0 89 96 96 61 38 62 0 0 +29 97 44 0 90 0 95 -.
019 .01 -4.04133443718627E-18 1 0 